<svg width="22" height="22" viewBox="0 0 22 22" fill="none" xmlns="http://www.w3.org/2000/svg">
<mask id="mask0_343_1760" style="mask-type:alpha" maskUnits="userSpaceOnUse" x="0" y="0" width="22" height="22">
<rect y="0.452148" width="21.5069" height="21.5069" fill="#D9D9D9"/>
</mask>
<g mask="url(#mask0_343_1760)">
<path d="M10.7527 20.1665C9.51307 20.1665 8.34812 19.9312 7.25784 19.4604C6.16756 18.9902 5.21916 18.3519 4.41266 17.5454C3.60615 16.7389 2.96781 15.7905 2.49765 14.7002C2.02688 13.6099 1.7915 12.445 1.7915 11.2053C1.7915 9.96571 2.02688 8.80076 2.49765 7.71048C2.96781 6.6202 3.60615 5.6718 4.41266 4.86529C5.21916 4.05878 6.16756 3.42015 7.25784 2.94939C8.34812 2.47922 9.51307 2.24414 10.7527 2.24414C11.9923 2.24414 13.1573 2.47922 14.2476 2.94939C15.3379 3.42015 16.2863 4.05878 17.0928 4.86529C17.8993 5.6718 18.5376 6.6202 19.0078 7.71048C19.4785 8.80076 19.7139 9.96571 19.7139 11.2053C19.7139 12.445 19.4785 13.6099 19.0078 14.7002C18.5376 15.7905 17.8993 16.7389 17.0928 17.5454C16.2863 18.3519 15.3379 18.9902 14.2476 19.4604C13.1573 19.9312 11.9923 20.1665 10.7527 20.1665ZM10.7527 18.3743C12.754 18.3743 14.4492 17.6798 15.8382 16.2908C17.2272 14.9018 17.9217 13.2067 17.9217 11.2053C17.9217 10.3988 17.7908 9.6222 17.5292 8.87543C17.2681 8.12866 16.8911 7.44164 16.3983 6.81435L6.36172 16.8509C6.989 17.3438 7.67603 17.7207 8.42279 17.9818C9.16956 18.2435 9.9462 18.3743 10.7527 18.3743ZM5.10715 15.5963L15.1437 5.55979C14.5164 5.06692 13.8294 4.68995 13.0826 4.42888C12.3359 4.16722 11.5592 4.03638 10.7527 4.03638C8.75137 4.03638 7.05621 4.73087 5.66722 6.11986C4.27824 7.50885 3.58374 9.20401 3.58374 11.2053C3.58374 12.0119 3.71458 12.7885 3.97625 13.5353C4.23732 14.282 4.61428 14.9691 5.10715 15.5963Z" fill="#EC7E6B"/>
</g>
</svg>
