<svg width="86" height="86" viewBox="0 0 86 86" fill="white" xmlns="http://www.w3.org/2000/svg">
<mask id="mask0_343_1690" style="mask-type:alpha" maskUnits="userSpaceOnUse" x="0" y="0" width="86" height="86">
<rect x="0.289062" y="0.53833" width="84.9242" height="84.9242" fill="#D9D9D9"/>
</mask>
<g mask="url(#mask0_343_1690)">
<path d="M42.751 71.3086C34.8483 71.3086 28.1546 68.5662 22.67 63.0816C17.1853 57.5969 14.4429 50.9032 14.4429 43.0005C14.4429 35.0978 17.1853 28.4042 22.67 22.9195C28.1546 17.4348 34.8483 14.6924 42.751 14.6924C50.6537 14.6924 57.3474 17.4348 62.832 22.9195C68.3167 28.4042 71.0591 35.0978 71.0591 43.0005C71.0591 50.9032 68.3167 57.5969 62.832 63.0816C57.3474 68.5662 50.6537 71.3086 42.751 71.3086ZM42.751 64.2316C48.6485 64.2316 53.6614 62.1674 57.7897 58.0392C61.9179 53.9109 63.9821 48.898 63.9821 43.0005C63.9821 41.9979 63.9089 41.0095 63.7627 40.0352C63.6141 39.0633 63.3923 38.1056 63.0974 37.162C62.2128 37.3389 61.3282 37.471 60.4436 37.5583C59.5589 37.6479 58.6743 37.6927 57.7897 37.6927C54.0742 37.6927 50.5357 36.985 47.1741 35.5696C43.8126 34.1542 40.8048 32.0901 38.1509 29.3773C36.4996 32.7388 34.2291 35.6581 31.3393 38.1351C28.4495 40.612 25.1764 42.4108 21.5199 43.5313C21.6969 49.3109 23.8341 54.2058 27.9317 58.2161C32.0317 62.2264 36.9714 64.2316 42.751 64.2316ZM33.9047 50.0775C32.9022 50.0775 32.0623 49.7378 31.3853 49.0584C30.7059 48.3814 30.3662 47.5416 30.3662 46.539C30.3662 45.5364 30.7059 44.6955 31.3853 44.0161C32.0623 43.339 32.9022 43.0005 33.9047 43.0005C34.9073 43.0005 35.7483 43.339 36.4277 44.0161C37.1047 44.6955 37.4432 45.5364 37.4432 46.539C37.4432 47.5416 37.1047 48.3814 36.4277 49.0584C35.7483 49.7378 34.9073 50.0775 33.9047 50.0775ZM51.5973 50.0775C50.5947 50.0775 49.7549 49.7378 49.0779 49.0584C48.3985 48.3814 48.0588 47.5416 48.0588 46.539C48.0588 45.5364 48.3985 44.6955 49.0779 44.0161C49.7549 43.339 50.5947 43.0005 51.5973 43.0005C52.5999 43.0005 53.4408 43.339 54.1202 44.0161C54.7973 44.6955 55.1358 45.5364 55.1358 46.539C55.1358 47.5416 54.7973 48.3814 54.1202 49.0584C53.4408 49.7378 52.5999 50.0775 51.5973 50.0775ZM3.82739 21.7695V11.1539C3.82739 9.20774 4.52094 7.54111 5.90804 6.15401C7.29277 4.76927 8.95823 4.0769 10.9044 4.0769H21.5199V11.1539H10.9044V21.7695H3.82739ZM21.5199 81.9241H10.9044C8.95823 81.9241 7.29277 81.2318 5.90804 79.847C4.52094 78.4599 3.82739 76.7933 3.82739 74.8471V64.2316H10.9044V74.8471H21.5199V81.9241ZM63.9821 81.9241V74.8471H74.5976V64.2316H81.6746V74.8471C81.6746 76.7933 80.9822 78.4599 79.5975 79.847C78.2104 81.2318 76.5438 81.9241 74.5976 81.9241H63.9821ZM74.5976 21.7695V11.1539H63.9821V4.0769H74.5976C76.5438 4.0769 78.2104 4.76927 79.5975 6.15401C80.9822 7.54111 81.6746 9.20774 81.6746 11.1539V21.7695H74.5976Z" fill="currentColor"/>
</g>
</svg>
