<svg width="22" height="22" viewBox="0 0 22 22" fill="none" xmlns="http://www.w3.org/2000/svg">
<mask id="mask0_343_1754" style="mask-type:alpha" maskUnits="userSpaceOnUse" x="0" y="0" width="22" height="22">
<rect x="0.30957" y="0.30957" width="21.5069" height="21.5069" fill="#D9D9D9"/>
</mask>
<g mask="url(#mask0_343_1754)">
<path d="M11.0628 12.4069C10.0472 12.4069 9.12506 12.6943 8.29644 13.269C7.46723 13.8443 6.86594 14.6024 6.49255 15.5434H15.633C15.2596 14.6024 14.6586 13.8443 13.83 13.269C13.0008 12.6943 12.0784 12.4069 11.0628 12.4069ZM7.29906 11.0628L8.28479 10.1218L9.22572 11.0628L10.1666 10.1218L9.22572 9.18091L10.1666 8.19518L9.22572 7.25425L8.28479 8.19518L7.29906 7.25425L6.35813 8.19518L7.29906 9.18091L6.35813 10.1218L7.29906 11.0628ZM12.8998 11.0628L13.8407 10.1218L14.8265 11.0628L15.7674 10.1218L14.8265 9.18091L15.7674 8.19518L14.8265 7.25425L13.8407 8.19518L12.8998 7.25425L11.9589 8.19518L12.8998 9.18091L11.9589 10.1218L12.8998 11.0628ZM11.0628 20.024C9.82313 20.024 8.65818 19.7886 7.5679 19.3178C6.47762 18.8477 5.52922 18.2093 4.72271 17.4028C3.91621 16.5963 3.27787 15.6479 2.80771 14.5576C2.33694 13.4674 2.10156 12.3024 2.10156 11.0628C2.10156 9.82313 2.33694 8.65818 2.80771 7.5679C3.27787 6.47762 3.91621 5.52922 4.72271 4.72271C5.52922 3.91621 6.47762 3.27757 7.5679 2.80681C8.65818 2.33664 9.82313 2.10156 11.0628 2.10156C12.3024 2.10156 13.4674 2.33664 14.5576 2.80681C15.6479 3.27757 16.5963 3.91621 17.4028 4.72271C18.2093 5.52922 18.8477 6.47762 19.3178 7.5679C19.7886 8.65818 20.024 9.82313 20.024 11.0628C20.024 12.3024 19.7886 13.4674 19.3178 14.5576C18.8477 15.6479 18.2093 16.5963 17.4028 17.4028C16.5963 18.2093 15.6479 18.8477 14.5576 19.3178C13.4674 19.7886 12.3024 20.024 11.0628 20.024ZM11.0628 18.2317C13.0641 18.2317 14.7593 17.5372 16.1482 16.1482C17.5372 14.7593 18.2317 13.0641 18.2317 11.0628C18.2317 9.06143 17.5372 7.36627 16.1482 5.97728C14.7593 4.5883 13.0641 3.8938 11.0628 3.8938C9.06143 3.8938 7.36627 4.5883 5.97728 5.97728C4.5883 7.36627 3.8938 9.06143 3.8938 11.0628C3.8938 13.0641 4.5883 14.7593 5.97728 16.1482C7.36627 17.5372 9.06143 18.2317 11.0628 18.2317Z" fill="#1C1B1F"/>
</g>
</svg>
