<svg width="22" height="23" viewBox="0 0 22 23" fill="none" xmlns="http://www.w3.org/2000/svg">
<mask id="mask0_343_1751" style="mask-type:alpha" maskUnits="userSpaceOnUse" x="0" y="0" width="22" height="23">
<rect y="0.835938" width="21.5069" height="21.5069" fill="#D9D9D9"/>
</mask>
<g mask="url(#mask0_343_1751)">
<path d="M9.85659 20.5507V17.8623H11.6488V20.5507H9.85659ZM1.7915 12.4856V10.6934H4.47987V12.4856H1.7915ZM17.0256 12.4856V10.6934H19.7139V12.4856H17.0256ZM16.1294 18.6689L14.2476 16.787L15.5021 15.5324L17.384 17.4143L16.1294 18.6689ZM5.37599 18.6689L4.12142 17.4143L6.00327 15.5324L7.25784 16.787L5.37599 18.6689ZM10.7527 16.0701C9.51307 16.0701 8.45655 15.6331 7.58313 14.7591C6.70911 13.8857 6.27211 12.8291 6.27211 11.5895C6.27211 10.8726 6.43281 10.2041 6.75422 9.58398C7.07503 8.96446 7.51174 8.43814 8.06435 8.00502V3.52441H13.4411V8.00502C13.9937 8.43814 14.4304 8.96446 14.7512 9.58398C15.0726 10.2041 15.2333 10.8726 15.2333 11.5895C15.2333 12.8291 14.7966 13.8857 13.9232 14.7591C13.0492 15.6331 11.9923 16.0701 10.7527 16.0701ZM9.85659 7.19851C10.0059 7.16864 10.1553 7.14623 10.3046 7.1313C10.454 7.11636 10.6034 7.1089 10.7527 7.1089C10.9021 7.1089 11.0514 7.11636 11.2008 7.1313C11.3501 7.14623 11.4995 7.16864 11.6488 7.19851V5.31666H9.85659V7.19851Z" fill="#FFCC00"/>
</g>
</svg>
