<svg width="22" height="23" viewBox="0 0 22 23" fill="none" xmlns="http://www.w3.org/2000/svg">
<mask id="mask0_343_1757" style="mask-type:alpha" maskUnits="userSpaceOnUse" x="0" y="0" width="22" height="23">
<rect y="0.609375" width="21.5069" height="21.5069" fill="#D9D9D9"/>
</mask>
<g mask="url(#mask0_343_1757)">
<path d="M10.7527 20.3239C9.52801 20.3239 8.37052 20.0885 7.28024 19.6178C6.18996 19.1476 5.23798 18.5054 4.42431 17.6911C3.61003 16.8774 2.96781 15.9254 2.49765 14.8352C2.02689 13.7449 1.7915 12.5874 1.7915 11.3627C1.7915 10.0783 2.03794 8.88702 2.5308 7.78897C3.02367 6.69152 3.68471 5.73954 4.51392 4.93303C5.34253 4.12652 6.29451 3.49924 7.36985 3.05118C8.4452 2.60312 9.57282 2.38656 10.7527 2.40149C11.3651 2.40149 11.9625 2.45377 12.545 2.55831C13.1274 2.66286 13.7248 2.86449 14.3372 3.16319L11.2232 4.59699L15.4797 6.65806L16.7791 9.50325C15.42 9.66754 14.0197 9.51071 12.5781 9.03278C11.1371 8.55485 9.85659 7.62886 8.73644 6.25481C8.2137 7.52431 7.50069 8.56979 6.5974 9.39123C5.69351 10.2127 4.68896 10.825 3.58375 11.2283C3.58375 13.3043 4.28212 15.0407 5.67887 16.4374C7.07503 17.8336 8.76631 18.5317 10.7527 18.5317C12.7839 18.5317 14.494 17.8148 15.883 16.381C17.272 14.9472 17.9515 13.2744 17.9217 11.3627C17.9217 11.1536 17.9142 10.9669 17.8993 10.8026C17.8843 10.6383 17.8619 10.4516 17.8321 10.2425L18.9522 7.77822C19.2211 8.4055 19.4152 9.0065 19.5347 9.58121C19.6542 10.1565 19.7139 10.7503 19.7139 11.3627C19.7139 12.5575 19.4863 13.6962 19.0311 14.7787C18.5752 15.8618 17.948 16.8141 17.1492 17.6355C16.3499 18.457 15.4051 19.1106 14.3148 19.5963C13.2245 20.0814 12.0371 20.3239 10.7527 20.3239ZM8.06435 13.379C7.75071 13.379 7.48575 13.2705 7.26949 13.0537C7.05263 12.8374 6.9442 12.5725 6.9442 12.2588C6.9442 11.9452 7.05263 11.6802 7.26949 11.464C7.48575 11.2471 7.75071 11.1387 8.06435 11.1387C8.37799 11.1387 8.64294 11.2471 8.85921 11.464C9.07607 11.6802 9.1845 11.9452 9.1845 12.2588C9.1845 12.5725 9.07607 12.8374 8.85921 13.0537C8.64294 13.2705 8.37799 13.379 8.06435 13.379ZM13.4411 13.379C13.1274 13.379 12.8625 13.2705 12.6462 13.0537C12.4294 12.8374 12.3209 12.5725 12.3209 12.2588C12.3209 11.9452 12.4294 11.6802 12.6462 11.464C12.8625 11.2471 13.1274 11.1387 13.4411 11.1387C13.7547 11.1387 14.0197 11.2471 14.2359 11.464C14.4528 11.6802 14.5612 11.9452 14.5612 12.2588C14.5612 12.5725 14.4528 12.8374 14.2359 13.0537C14.0197 13.2705 13.7547 13.379 13.4411 13.379ZM17.4736 7.77822L16.4879 5.62753L14.3372 4.64179L16.4879 3.65606L17.4736 1.50537L18.4593 3.65606L20.61 4.64179L18.4593 5.62753L17.4736 7.77822Z" fill="#FA9233"/>
</g>
</svg>
