<svg width="238" height="30" viewBox="0 0 238 30" fill="none" xmlns="http://www.w3.org/2000/svg">
<path d="M22.8405 9.11711L15.2363 4.55867L22.8409 0L22.8421 9.11872L19.7236 11.0003L22.8571 9.12182L22.8571 20.7968L15.2271 25.4004V25.37L7.63003 29.9536V30L1.47048e-06 25.3964L0 13.7215L0.418219 13.9722L0.0038721 13.7222L0.00387246 13.7194L7.60278 18.2747V18.2654L15.2123 13.7038L15.2123 13.6818L15.2191 13.6859L22.8405 9.11711Z" fill="#3C484D"/>
<path d="M0.00507347 4.60315L7.6351 9.17709V9.17847L7.60328 9.15939L0.00387304 13.715L0.00507347 4.60315Z" fill="#3C484D"/>
<path d="M141.589 9.27095C140.916 7.74587 139.97 6.51115 138.782 5.6016L138.752 5.57779C137.584 4.66549 136.186 4.01149 134.594 3.63228C133.053 3.26956 131.372 3.08545 129.6 3.08545H117.901V26.7494H129.631C130.779 26.7494 131.888 26.677 132.926 26.535L133.156 26.503L133.308 26.4782V26.4755C134.286 26.3124 135.212 26.067 136.065 25.7436H136.145L136.184 25.7015C137.135 25.3351 138.007 24.8469 138.777 24.2497C139.59 23.6296 140.289 22.862 140.858 21.9671C141.416 21.0878 141.851 20.0454 142.152 18.8693C142.457 17.7051 142.612 16.3697 142.612 14.9023C142.612 12.7012 142.272 10.8162 141.599 9.29476L141.589 9.27095ZM138.814 14.9023C138.814 16.5364 138.59 17.8947 138.147 18.9371C137.714 19.9438 137.108 20.7553 136.345 21.3488C135.568 21.9497 134.615 22.3839 133.511 22.6394C132.34 22.8977 131.025 23.0287 129.6 23.0287H121.637V6.79144H129.6C130.541 6.79144 131.452 6.84731 132.309 6.95814C133.084 7.06073 133.809 7.23293 134.463 7.47108L134.684 7.55535C135.303 7.79075 135.87 8.10126 136.371 8.47956C136.848 8.84136 137.267 9.29934 137.612 9.8361L137.666 9.92495C138.028 10.5066 138.311 11.2055 138.507 12.0033C138.711 12.8276 138.814 13.8031 138.814 14.9023Z" fill="#3C484D"/>
<path d="M172.27 21.6125L165.635 3.69444L165.412 3.08624H161.592L154.739 21.6089L147.854 3.68162L147.623 3.0835H143.531L152.472 26.1511L152.704 26.7465H156.784L163.494 8.76338L170.176 26.6302L170.22 26.7465H174.3L183.472 3.0835H179.382L172.27 21.6125Z" fill="#3C484D"/>
<path d="M205.097 4.51497C204.041 3.87379 202.785 3.4039 201.364 3.11904C199.995 2.83418 198.498 2.68945 196.915 2.68945C195.067 2.68945 193.305 2.8415 191.676 3.14285L191.632 3.14743C190.042 3.43322 188.54 3.76937 187.168 4.14492L187.077 4.17057C187.063 4.17331 187.05 4.17698 187.038 4.18247L186.379 4.36567V8.79343L187.624 8.29332C188.254 8.03776 188.926 7.78038 189.621 7.52757C190.267 7.294 190.948 7.08974 191.647 6.91937C192.353 6.7371 193.111 6.59512 193.899 6.49803C194.712 6.39819 195.619 6.34781 196.597 6.34781C197.29 6.34781 197.989 6.37987 198.675 6.44399L198.901 6.46689C199.533 6.52368 200.148 6.6171 200.728 6.74442L200.842 6.77007C201.439 6.90746 201.998 7.08791 202.508 7.30682L202.616 7.35171C203.076 7.54772 203.485 7.79595 203.825 8.08814L203.986 8.23195C204.29 8.51132 204.533 8.83923 204.706 9.20745C204.887 9.5949 204.98 10.0565 204.98 10.5786V11.3481C203.321 11.4543 201.712 11.5862 200.198 11.7383C198.404 11.9105 196.728 12.1367 195.215 12.4097L195.172 12.4142C193.649 12.6771 192.235 13.0114 190.968 13.409H190.889L190.857 13.4429C189.584 13.8431 188.474 14.3433 187.556 14.9286C186.572 15.5477 185.794 16.3007 185.242 17.1653C184.677 18.0593 184.39 19.098 184.39 20.253C184.39 21.2359 184.573 22.1381 184.934 22.9405H184.911L185.099 23.2812V23.2995L185.128 23.3371L185.179 23.425C185.623 24.1935 186.23 24.8558 186.983 25.3953V25.4035L187.26 25.5867C188.072 26.107 189.061 26.5063 190.199 26.7738C191.352 27.0422 192.656 27.1786 194.075 27.1786C195.16 27.1786 196.275 27.1063 197.389 26.9643C198.49 26.826 199.592 26.6236 200.664 26.3607C201.72 26.1024 202.743 25.7891 203.706 25.4292C204.146 25.2643 204.575 25.0875 204.985 24.9025V26.75H208.706V11.0375C208.706 9.52529 208.379 8.2118 207.731 7.13004C207.078 6.05837 206.191 5.17813 205.097 4.51497ZM204.971 15.0064V20.8228C204.737 20.9794 204.475 21.1315 204.189 21.278C203.714 21.5281 203.188 21.7626 202.627 21.976C202.034 22.2022 201.401 22.412 200.75 22.5997C200.053 22.7903 199.367 22.9551 198.713 23.0907C198.011 23.2254 197.314 23.3334 196.64 23.4113C194.868 23.5936 193.177 23.5432 191.752 23.2657C190.932 23.0944 190.236 22.8507 189.684 22.543C189.178 22.2508 188.789 21.8972 188.53 21.4942C188.289 21.1058 188.173 20.668 188.173 20.1578C188.173 19.5707 188.418 19.0467 188.921 18.5567C189.521 17.9805 190.515 17.453 191.876 16.9904C193.321 16.5003 195.209 16.0818 197.487 15.7456C199.595 15.436 202.112 15.1869 204.971 15.0064Z" fill="#3C484D"/>
<path d="M85.25 22.0174C84.8028 20.9411 84.2347 19.9638 83.5643 19.1174L83.5502 19.0991C82.893 18.2619 82.1389 17.5273 81.3115 16.9145C80.4946 16.3018 79.6381 15.7815 78.7675 15.3684C78.1518 15.0643 77.5158 14.8005 76.8719 14.5816C77.275 14.392 77.6834 14.1822 78.0936 13.9551C78.8301 13.5328 79.557 13.04 80.2556 12.4886L80.3032 12.4511L80.4214 12.4492V12.3558L80.4391 12.3411C81.1597 11.743 81.824 11.0469 82.4123 10.2729C83.0307 9.45677 83.5537 8.53806 83.9666 7.54332C84.3864 6.5495 84.659 5.43661 84.7754 4.23853L84.8804 3.07983H81.0856L81.001 3.93443C80.9092 4.86963 80.6763 5.74346 80.3094 6.53118C79.9345 7.33723 79.4449 8.09382 78.8531 8.77713C78.2594 9.45127 77.5599 10.0641 76.7748 10.599C75.9924 11.1266 75.1253 11.5864 74.1983 11.9656C73.2782 12.332 72.2965 12.6196 71.282 12.8211C70.2623 13.0098 69.225 13.1051 68.1974 13.1051H66.382V3.08625H62.6428V26.7502H66.3785V16.7533H68.7125C69.6537 16.7533 70.624 16.822 71.5987 16.9585V16.9677L71.8783 16.9979L71.9771 17.0135C72.9783 17.1619 73.9716 17.3991 74.9304 17.7197C75.8663 18.0348 76.7696 18.4387 77.6155 18.9187L77.7178 18.9764C78.5232 19.4353 79.2535 19.994 79.8869 20.6361L80.0509 20.8056C80.6455 21.4321 81.143 22.1557 81.5302 22.9526L81.5629 23.0231C81.9669 23.8621 82.2174 24.8239 82.3091 25.8827L82.3823 26.7465H86.1806L86.0995 25.7188C85.9892 24.3586 85.7034 23.1129 85.25 22.0174Z" fill="#3C484D"/>
<path d="M110.569 6.15819C109.466 5.09018 108.092 4.26032 106.489 3.68967C104.913 3.13093 103.104 2.8479 101.114 2.8479C99.1849 2.8479 97.3951 3.14376 95.7932 3.72539C94.1719 4.31161 92.7571 5.15155 91.5874 6.22231C90.4354 7.27383 89.518 8.54428 88.8582 10.0025L88.8123 10.1106C88.1614 11.6146 87.8306 13.2807 87.8306 15.0632C87.8306 16.9098 88.179 18.6034 88.867 20.0973C89.5357 21.5546 90.4945 22.8232 91.7188 23.872L91.9041 24.025C93.1408 25.0179 94.6386 25.7946 96.3569 26.3332C98.0964 26.8754 100.059 27.1502 102.189 27.1502C103.099 27.1502 103.933 27.1173 104.672 27.0531L104.703 27.0504C105.455 26.9954 106.211 26.902 106.946 26.771C107.683 26.6501 108.439 26.4898 109.194 26.2929C109.946 26.0859 110.721 25.8542 111.499 25.6041L112.258 25.3604V20.6496L110.86 21.5574C110.504 21.7882 110.03 22.0208 109.455 22.2471C108.863 22.4715 108.184 22.6849 107.44 22.88C106.716 23.0586 105.932 23.207 105.11 23.3215C104.297 23.4314 103.496 23.4873 102.728 23.4873C100.886 23.4873 99.259 23.2959 97.8917 22.9194C96.5677 22.5429 95.4377 22.0025 94.5336 21.3137C93.663 20.6405 92.9829 19.818 92.5127 18.8699C92.1714 18.1811 91.9217 17.4172 91.7709 16.5947H113.983V15.153C113.983 13.2853 113.694 11.5807 113.125 10.0849C112.536 8.5516 111.677 7.22987 110.569 6.15819ZM91.8053 12.9665C91.9499 12.3684 92.1564 11.7822 92.4201 11.2216L92.4783 11.1007C92.8894 10.2635 93.4548 9.51062 94.1534 8.86944L94.3369 8.71464L94.3395 8.71281C95.0849 8.06156 96.0093 7.52847 97.0873 7.12911C98.2119 6.71418 99.5562 6.50443 101.082 6.50443C102.683 6.50443 104.066 6.70869 105.188 7.10896L105.592 7.272V7.26559C106.535 7.64663 107.324 8.13026 107.938 8.70091L108.093 8.8557L108.207 8.96379C108.812 9.58389 109.28 10.2947 109.602 11.0751L109.604 11.2262H109.662C109.878 11.7795 110.04 12.3638 110.143 12.9665H91.8053Z" fill="#3C484D"/>
<path d="M234.151 3.0332V10.8958C232.423 12.3916 230.592 13.2068 230.57 13.2169L230.558 13.2224C229.068 14.0101 227.315 14.502 225.624 14.6082C223.725 14.7273 222.016 14.3545 220.684 13.5292C218.571 12.2212 217.504 9.92033 217.425 6.50012L217.424 3.07442H213.555V6.58622C213.697 12.6536 216.367 15.5645 218.581 16.9384C220.316 18.0138 222.451 18.567 224.777 18.567C225.777 18.567 226.811 18.4654 227.865 18.2593C229.429 17.9524 230.93 17.4331 232.196 16.7589C232.257 16.7296 233.109 16.3229 234.151 15.6625V17.8324C234.151 18.6916 233.937 19.4317 233.494 20.093L233.475 20.1214C233.473 20.126 233.468 20.1315 233.465 20.1379L233.405 20.2213C232.936 20.889 232.284 21.4706 231.47 21.9488C230.595 22.458 229.534 22.8583 228.319 23.1386C227.079 23.4134 225.732 23.5526 224.316 23.5526C223.303 23.5526 222.342 23.505 221.461 23.4125C220.622 23.3135 219.799 23.1725 219.016 22.9948C218.255 22.8098 217.526 22.5963 216.852 22.3591C216.158 22.1155 215.489 21.8517 214.863 21.576L213.574 21.0117V25.4807L214.182 25.7152C215.43 26.1943 216.905 26.579 218.571 26.8602L218.805 26.8959C220.472 27.1487 222.306 27.2778 224.261 27.2778C226.079 27.2778 227.805 27.1111 229.393 26.7814L229.503 26.7576C229.513 26.7557 229.521 26.7539 229.527 26.7521L229.628 26.7292C231.235 26.3655 232.658 25.8086 233.855 25.074C235.089 24.3239 236.081 23.3685 236.808 22.2318L236.937 22.0266C237.643 20.8295 238 19.418 238 17.8324V3.0332H234.151Z" fill="#3C484D"/>
<path d="M57.9324 17.8142C57.5469 17.1428 57.0168 16.5419 56.3596 16.0271C55.7492 15.5435 55.0153 15.1148 54.1791 14.753C53.394 14.4013 52.5525 14.0862 51.6801 13.8169C50.8483 13.5467 49.9512 13.2866 49.0144 13.0429L46.4008 12.3633C45.5999 12.1434 44.8077 11.9035 44.0482 11.6507C43.3461 11.4043 42.7278 11.1341 42.2126 10.8474C41.7539 10.5872 41.3923 10.2959 41.14 9.98269C40.9521 9.74454 40.8604 9.47158 40.8604 9.14733C40.8604 8.70492 40.9689 8.33853 41.1894 8.03077C41.4373 7.70102 41.8042 7.41616 42.2779 7.18534L42.3687 7.1432C42.9562 6.86475 43.6954 6.65591 44.5643 6.52218C45.4772 6.38204 46.541 6.31151 47.7257 6.31151C48.6519 6.31151 49.5058 6.36647 50.2626 6.47363L50.6948 6.53683V6.535C51.3343 6.63301 51.9156 6.75117 52.4246 6.88765L52.6257 6.94261C53.2123 7.10473 53.7336 7.28792 54.1791 7.49035C54.6722 7.70011 55.1168 7.90528 55.4987 8.09855L56.8148 8.76171V4.23777L56.1303 4.04999C55.4802 3.87321 54.8107 3.70101 54.1412 3.53889C53.4805 3.37584 52.7924 3.23204 52.1 3.11388C51.4023 2.98381 50.6719 2.87939 49.93 2.8052C48.4428 2.65315 46.7616 2.65315 45.1959 2.8052C44.3887 2.88397 43.6037 3.01404 42.8662 3.18899C42.1112 3.36027 41.3879 3.60392 40.7192 3.9126C40.0665 4.20021 39.4711 4.56843 38.948 5.00809L38.6357 5.29112L38.641 5.29754C38.2017 5.73903 37.8418 6.2538 37.5693 6.82994L37.5446 6.87483C37.2235 7.55905 37.0603 8.34586 37.0603 9.2142C37.0603 10.0276 37.2279 10.7722 37.5587 11.4281L37.549 11.4372L37.6848 11.6626C37.6945 11.68 37.7042 11.6965 37.7148 11.712C37.7236 11.7267 37.7325 11.7404 37.7413 11.756L37.751 11.7716C38.0844 12.3019 38.5105 12.7874 39.0194 13.2197L39.0088 13.2307L39.277 13.4285C39.3026 13.4487 39.329 13.4688 39.3582 13.489L39.374 13.5C39.9562 13.9186 40.6187 14.2886 41.3446 14.6001L41.4496 14.644C41.4602 14.6486 41.4699 14.6523 41.4778 14.6541L41.5599 14.688C42.3141 14.9985 43.1176 15.2815 43.9495 15.5288C44.7354 15.7661 45.5919 16.0006 46.4996 16.2286L46.6134 16.2543C47.4814 16.4549 48.3546 16.6775 49.212 16.9147C50.0315 17.1309 50.8148 17.369 51.5416 17.6237C52.2447 17.8673 52.856 18.1503 53.3614 18.4673C53.7919 18.7228 54.1341 19.0159 54.3793 19.3383L54.464 19.4538C54.6528 19.7276 54.7445 20.0409 54.7445 20.4118C54.7445 20.9138 54.621 21.3232 54.3661 21.6621L54.1959 21.8627C53.8959 22.1888 53.4805 22.47 52.9592 22.6999C52.2949 22.983 51.4825 23.1964 50.5449 23.3329C49.5799 23.473 48.5028 23.5444 47.3446 23.5444C45.7119 23.5444 44.1347 23.3906 42.6572 23.0865C41.2344 22.7943 39.8592 22.2419 38.5687 21.4441L37.1864 20.5886V25.3599L37.803 25.588C39.1897 26.078 40.6566 26.4682 42.1623 26.7494C43.6928 27.0315 45.4155 27.1744 47.282 27.1744C48.0847 27.1744 48.9209 27.1359 49.7677 27.0608C50.6163 26.9967 51.4411 26.8758 52.2182 26.7036H52.3205L52.3443 26.6789C53.0033 26.5314 53.6384 26.339 54.2364 26.1073V26.1165L54.6942 25.9214C55.377 25.6136 55.9856 25.2381 56.5061 24.8021L56.6851 24.6454C57.187 24.1911 57.6025 23.6589 57.9227 23.0645H57.9298L58.0868 22.7421C58.4087 22.023 58.5719 21.1987 58.5719 20.2928C58.5657 19.3631 58.3523 18.5323 57.9377 17.8243L57.9324 17.8142Z" fill="#3C484D"/>
</svg>
