<svg width="24" height="24" viewBox="0 0 24 24" fill="currentColor" xmlns="http://www.w3.org/2000/svg">
<mask id="mask0_606_108" style="mask-type:alpha" maskUnits="userSpaceOnUse" x="0" y="0" width="24" height="24">
<rect width="24" height="24" fill="currentColor"/>
</mask>
<g mask="url(#mask0_606_108)">
<path d="M22 19.125L20 17.125V6.99995H15.95L14.125 4.99995H9.87505L8.92505 6.04995L7.50005 4.62495L9.00005 2.99995H15L16.85 4.99995H20C20.55 4.99995 21.0209 5.19578 21.4125 5.58745C21.8042 5.97912 22 6.44995 22 6.99995V19.125ZM16.475 13.6L11.4 8.52495C12.1 8.44162 12.7834 8.50828 13.45 8.72495C14.1167 8.94162 14.7 9.29995 15.2 9.79995C15.7 10.3 16.0584 10.8833 16.275 11.55C16.4917 12.2166 16.5584 12.9 16.475 13.6ZM5.02505 4.99995L7.02505 6.99995H4.00005V19H16.175L0.675049 3.49995L2.10005 2.07495L21.9 21.875L20.475 23.3L18.175 21H4.00005C3.45005 21 2.97922 20.8041 2.58755 20.4125C2.19588 20.0208 2.00005 19.55 2.00005 19V6.99995C2.00005 6.44995 2.19588 5.97912 2.58755 5.58745C2.97922 5.19578 3.45005 4.99995 4.00005 4.99995H5.02505ZM8.65005 10.025L10.05 11.425C9.86672 11.6583 9.72922 11.9083 9.63755 12.175C9.54588 12.4416 9.50005 12.7166 9.50005 13C9.50005 13.7 9.74172 14.2916 10.225 14.775C10.7084 15.2583 11.3 15.5 12 15.5C12.2834 15.5 12.5584 15.4541 12.825 15.3625C13.0917 15.2708 13.3417 15.1333 13.575 14.95L14.975 16.375C14.5584 16.7416 14.0959 17.0208 13.5875 17.2125C13.0792 17.4041 12.55 17.5 12 17.5C10.75 17.5 9.68755 17.0625 8.81255 16.1875C7.93755 15.3125 7.50005 14.25 7.50005 13C7.50005 12.45 7.60005 11.9208 7.80005 11.4125C8.00005 10.9041 8.28338 10.4416 8.65005 10.025Z" fill="currentColor"/>
</g>
</svg>
