<svg width="24" height="24" viewBox="0 0 24 24" fill="currentColor" xmlns="http://www.w3.org/2000/svg">
<mask id="mask0_606_44" style="mask-type:alpha" maskUnits="userSpaceOnUse" x="0" y="0" width="24" height="24">
<rect width="24" height="24" fill="currentColor"/>
</mask>
<g mask="url(#mask0_606_44)">
<path d="M19.775 22.625L17.15 20H4V17.2C4 16.6334 4.14583 16.1125 4.4375 15.6375C4.72917 15.1625 5.11667 14.8 5.6 14.55C6.35 14.1667 7.1125 13.8584 7.8875 13.625C8.6625 13.3917 9.45 13.2167 10.25 13.1L1.375 4.22505L2.8 2.80005L21.2 21.2L19.775 22.625ZM6 18H15.15L12.15 15H12C11.0667 15 10.1417 15.1125 9.225 15.3375C8.30833 15.5625 7.4 15.9 6.5 16.35C6.35 16.4334 6.22917 16.55 6.1375 16.7C6.04583 16.85 6 17.0167 6 17.2V18ZM18.4 14.55C18.8833 14.7834 19.2667 15.1375 19.55 15.6125C19.8333 16.0875 19.9833 16.6 20 17.15L16.65 13.8C16.95 13.9167 17.2458 14.0334 17.5375 14.15C17.8292 14.2667 18.1167 14.4 18.4 14.55ZM14.2 11.35L12.725 9.87505C13.1083 9.72505 13.4167 9.47922 13.65 9.13755C13.8833 8.79588 14 8.41672 14 8.00005C14 7.45005 13.8042 6.97922 13.4125 6.58755C13.0208 6.19588 12.55 6.00005 12 6.00005C11.5833 6.00005 11.2042 6.11672 10.8625 6.35005C10.5208 6.58338 10.275 6.89172 10.125 7.27505L8.65 5.80005C9.03333 5.23338 9.51667 4.79172 10.1 4.47505C10.6833 4.15838 11.3167 4.00005 12 4.00005C13.1 4.00005 14.0417 4.39172 14.825 5.17505C15.6083 5.95838 16 6.90005 16 8.00005C16 8.68338 15.8417 9.31672 15.525 9.90005C15.2083 10.4834 14.7667 10.9667 14.2 11.35Z" fill="currentColor"/>
</g>
</svg>
